HIERARCHY
ROOT hip
{
  OFFSET 0 0 0
  CHANNELS 6 Xposition Yposition Zposition Zrotation Yrotation Xrotation
  JOINT abdomen
  {
    OFFSET 0 20.6881 -0.73152
    CHANNELS 3 Zrotation Xrotation Yrotation
    JOINT chest
    {
      OFFSET 0 11.7043 -0.48768
      CHANNELS 3 Zrotation Xrotation Yrotation
      JOINT neck
      {
        OFFSET 0 22.1894 -2.19456
        CHANNELS 3 Zrotation Xrotation Yrotation
        JOINT head
        {
          OFFSET -0.24384 7.07133 1.2192
          CHANNELS 3 Zrotation Xrotation Yrotation
          JOINT leftEye
          {
            OFFSET 4.14528 8.04674 8.04672
            CHANNELS 3 Zrotation Xrotation Yrotation
            End Site
            {
              OFFSET 1 0 0
            }
          }
          JOINT rightEye
          {
            OFFSET -3.6576 8.04674 8.04672
            CHANNELS 3 Zrotation Xrotation Yrotation
            End Site
            {
              OFFSET 1 0 0
            }
          }
        }
      }
      JOINT rCollar
      {
        OFFSET -2.68224 19.2634 -4.8768
        CHANNELS 3 Zrotation Xrotation Yrotation
        JOINT rShldr
        {
          OFFSET -8.77824 -1.95073 1.46304
          CHANNELS 3 Zrotation Xrotation Yrotation
          JOINT rForeArm
          {
            OFFSET -28.1742 -1.7115 0.48768
            CHANNELS 3 Zrotation Xrotation Yrotation
            JOINT rHand
            {
              OFFSET -22.5879 0.773209 7.07136
              CHANNELS 3 Zrotation Xrotation Yrotation
              JOINT rThumb1
              {
                OFFSET -1.2192 -0.487915 3.41376
                CHANNELS 3 Zrotation Xrotation Yrotation
                JOINT rThumb2
                {
                  OFFSET -3.37035 -0.52449 3.41376
                  CHANNELS 3 Zrotation Xrotation Yrotation
                  End Site
                  {
                    OFFSET -1.78271 -1.18214 1.43049
                  }
                }
              }
              JOINT rIndex1
              {
                OFFSET -7.75947 0.938293 5.60832
                CHANNELS 3 Zrotation Xrotation Yrotation
                JOINT rIndex2
                {
                  OFFSET -2.54057 -0.884171 1.56538
                  CHANNELS 3 Zrotation Xrotation Yrotation
                  End Site
                  {
                    OFFSET -1.62519 -0.234802 1.16502
                  }
                }
              }
              JOINT rMid1
              {
                OFFSET -8.24714 1.18213 3.41376
                CHANNELS 3 Zrotation Xrotation Yrotation
                JOINT rMid2
                {
                  OFFSET -3.10165 -0.590103 1.0647
                  CHANNELS 3 Zrotation Xrotation Yrotation
                  End Site
                  {
                    OFFSET -2.48547 -0.328903 0.83742
                  }
                }
              }
              JOINT rRing1
              {
                OFFSET -8.82822 0.546677 1.51678
                CHANNELS 3 Zrotation Xrotation Yrotation
                JOINT rRing2
                {
                  OFFSET -2.60934 -0.819778 -0.0198488
                  CHANNELS 3 Zrotation Xrotation Yrotation
                  End Site
                  {
                    OFFSET -2.33842 -0.294052 0.168128
                  }
                }
              }
              JOINT rPinky1
              {
                OFFSET -8.27202 -0.0477905 -0.4584
                CHANNELS 3 Zrotation Xrotation Yrotation
                JOINT rPinky2
                {
                  OFFSET -1.82734 -0.647385 -0.700984
                  CHANNELS 3 Zrotation Xrotation Yrotation
                  End Site
                  {
                    OFFSET -1.69225 -0.51767 -0.607171
                  }
                }
              }
            }
          }
        }
      }
      JOINT lCollar
      {
        OFFSET 2.68224 19.2634 -4.8768
        CHANNELS 3 Zrotation Xrotation Yrotation
        JOINT lShldr
        {
          OFFSET 8.77824 -1.95073 1.46304
          CHANNELS 3 Zrotation Xrotation Yrotation
          JOINT lForeArm
          {
            OFFSET 28.1742 -1.7115 0.48768
            CHANNELS 3 Zrotation Xrotation Yrotation
            JOINT lHand
            {
              OFFSET 22.5879 0.773209 7.07136
              CHANNELS 3 Zrotation Xrotation Yrotation
              JOINT lThumb1
              {
                OFFSET 1.2192 -0.487915 3.41376
                CHANNELS 3 Zrotation Xrotation Yrotation
                JOINT lThumb2
                {
                  OFFSET 3.37035 -0.52449 3.41376
                  CHANNELS 3 Zrotation Xrotation Yrotation
                  End Site
                  {
                    OFFSET 1.78271 -1.18214 1.43049
                  }
                }
              }
              JOINT lIndex1
              {
                OFFSET 7.75947 0.938293 5.60832
                CHANNELS 3 Zrotation Xrotation Yrotation
                JOINT lIndex2
                {
                  OFFSET 2.54057 -0.884171 1.56538
                  CHANNELS 3 Zrotation Xrotation Yrotation
                  End Site
                  {
                    OFFSET 1.62519 -0.234802 1.16502
                  }
                }
              }
              JOINT lMid1
              {
                OFFSET 8.24714 1.18213 3.41376
                CHANNELS 3 Zrotation Xrotation Yrotation
                JOINT lMid2
                {
                  OFFSET 3.10165 -0.590103 1.0647
                  CHANNELS 3 Zrotation Xrotation Yrotation
                  End Site
                  {
                    OFFSET 2.48547 -0.328903 0.83742
                  }
                }
              }
              JOINT lRing1
              {
                OFFSET 8.82822 0.546677 1.51678
                CHANNELS 3 Zrotation Xrotation Yrotation
                JOINT lRing2
                {
                  OFFSET 2.60934 -0.819778 -0.0198488
                  CHANNELS 3 Zrotation Xrotation Yrotation
                  End Site
                  {
                    OFFSET 2.33842 -0.294052 0.168128
                  }
                }
              }
              JOINT lPinky1
              {
                OFFSET 8.27202 -0.0477905 -0.4584
                CHANNELS 3 Zrotation Xrotation Yrotation
                JOINT lPinky2
                {
                  OFFSET 1.82734 -0.647385 -0.700984
                  CHANNELS 3 Zrotation Xrotation Yrotation
                  End Site
                  {
                    OFFSET 1.69225 -0.51767 -0.607171
                  }
                }
              }
            }
          }
        }
      }
    }
  }
  JOINT rButtock
  {
    OFFSET -8.77824 4.35084 1.2192
    CHANNELS 3 Zrotation Xrotation Yrotation
    JOINT rThigh
    {
      OFFSET 0 -1.70687 -2.19456
      CHANNELS 3 Zrotation Xrotation Yrotation
      JOINT rShin
      {
        OFFSET 0 -36.8199 0.73152
        CHANNELS 3 Zrotation Xrotation Yrotation
        JOINT rFoot
        {
          OFFSET 0.73152 -45.1104 -5.12064
          CHANNELS 3 Zrotation Xrotation Yrotation
          End Site
          {
            OFFSET -1.1221 -3.69964 12.103
          }
        }
      }
    }
  }
  JOINT lButtock
  {
    OFFSET 8.77824 4.35084 1.2192
    CHANNELS 3 Zrotation Xrotation Yrotation
    JOINT lThigh
    {
      OFFSET 0 -1.70687 -2.19456
      CHANNELS 3 Zrotation Xrotation Yrotation
      JOINT lShin
      {
        OFFSET 0 -36.8199 0.73152
        CHANNELS 3 Zrotation Xrotation Yrotation
        JOINT lFoot
        {
          OFFSET -0.73152 -45.1104 -5.12064
          CHANNELS 3 Zrotation Xrotation Yrotation
          End Site
          {
            OFFSET 1.1221 -3.69964 12.103
          }
        }
      }
    }
  }
}
MOTION
Frames:	7
Frame Time:	0.00833333
48.6736 85.6532 -172.451 -1.3586 25.8296 2.705 2.11736 -6.71204 2.5565 -0.233763 -1.30236 0.849806 0.607933 15.5996 -5.04613 4.56252 -23.8135 -8.93355 -0.0 0.0 0.0 -0.0 0.0 0.0 9.70151e-14 -5.08867e-14 -4.38817e-13 82.1081 27.479 -7.62891 -11.8088 -5.31545 21.2404 -0.008635 2.65222 0.373014 9.52347e-10 1.33877e-09 -1.96911e-09 1.64271e-09 2.31965e-09 -3.40709e-09 9.52353e-10 1.33878e-09 -1.96912e-09 7.73091 5.47488 0.417314 9.52355e-10 1.33877e-09 -1.9691e-09 2.90554 0.965183 0.102902 9.52353e-10 1.33878e-09 -1.96911e-09 10.2786 0.731801 0.0259123 9.52342e-10 1.33878e-09 -1.9691e-09 2.22167 -0.733487 -0.20892 9.69554e-14 -5.08914e-14 -4.39016e-13 -72.249 44.4051 -5.04733 9.32389 -3.74047 -16.5395 0.156103 -11.1908 1.59328 -1.32455e-09 -1.51893e-10 1.04376e-09 -2.29727e-09 -2.64514e-10 1.79707e-09 -1.32458e-09 -1.519e-10 1.04378e-09 -7.73091 5.47488 -0.417314 -1.32455e-09 -1.51893e-10 1.04377e-09 -2.90554 0.965183 -0.102902 -1.32456e-09 -1.51892e-10 1.04377e-09 -10.2786 0.731801 -0.0259123 -1.32454e-09 -1.51891e-10 1.04376e-09 -2.22167 -0.733487 0.20892 -2.03217e-16 0.0 -3.88251e-19 -3.56772 -7.77679 5.4593 -0.0118078 8.41563 -0.0114399 -16.3033 -22.9427 -37.3221 2.03217e-16 0.0 3.88251e-19 6.92597 3.4013 -1.14067 0.00310597 -0.999107 -0.00817612 1.39996 -15.3069 3.19143
48.6719 85.6576 -172.447 -1.3689 25.8557 2.6794 2.1115 -6.68986 2.53525 -0.240182 -1.31489 0.843817 0.627677 15.6143 -5.04874 4.51648 -23.8588 -8.94723 -0.0 0.0 0.0 -0.0 0.0 0.0 7.50151e-14 -6.08758e-14 -4.96764e-13 82.1107 27.551 -7.61978 -11.8039 -5.31268 21.2313 -0.00845911 2.62593 0.369312 1.15299e-09 1.65851e-09 -2.05547e-09 1.98948e-09 2.87521e-09 -3.55814e-09 1.153e-09 1.65851e-09 -2.05548e-09 7.73091 5.47488 0.417314 1.153e-09 1.6585e-09 -2.05547e-09 2.90554 0.965183 0.102902 1.153e-09 1.65851e-09 -2.05548e-09 10.2786 0.731801 0.0259123 1.15298e-09 1.65851e-09 -2.05547e-09 2.22167 -0.733487 -0.20892 7.4962e-14 -6.08802e-14 -4.96952e-13 -72.2073 44.4446 -5.05942 9.33681 -3.74789 -16.5635 0.157929 -11.2551 1.60268 -8.61743e-10 -1.77003e-10 8.29632e-10 -1.49669e-09 -3.09609e-10 1.43116e-09 -8.61768e-10 -1.77009e-10 8.2965e-10 -7.73091 5.47488 -0.417314 -8.61743e-10 -1.77002e-10 8.29634e-10 -2.90554 0.965183 -0.102902 -8.6175e-10 -1.77002e-10 8.29638e-10 -10.2786 0.731801 -0.0259123 -8.61737e-10 -1.77e-10 8.2963e-10 -2.22167 -0.733487 0.20892 -2.03217e-16 0.0 -3.88251e-19 -3.5638 -7.76324 5.45696 -0.0117942 8.41886 -0.0111607 -16.336 -22.9985 -37.3156 2.03217e-16 0.0 3.88251e-19 6.93978 3.40328 -1.14119 0.0035667 -0.996002 -0.00786526 1.37705 -15.2926 3.1262
48.6707 85.6598 -172.447 -1.3697 25.8816 2.675 2.08482 -6.67414 2.49417 -0.228387 -1.31713 0.83282 0.643764 15.6366 -5.05078 4.44416 -23.9369 -8.9646 -0.0 0.0 0.0 -0.0 0.0 0.0 2.87519e-14 -6.50006e-14 -5.43375e-13 82.093 27.6831 -7.59467 -11.7949 -5.30637 21.2138 -0.00810045 2.57055 0.361511 1.41391e-09 2.05841e-09 -2.03599e-09 2.44063e-09 3.57076e-09 -3.5271e-09 1.41392e-09 2.05841e-09 -2.036e-09 7.73091 5.47488 0.417314 1.41392e-09 2.0584e-09 -2.03599e-09 2.90554 0.965183 0.102902 1.41392e-09 2.05841e-09 -2.03599e-09 10.2786 0.731801 0.0259123 1.4139e-09 2.05841e-09 -2.03598e-09 2.22167 -0.733487 -0.20892 2.86926e-14 -6.5005e-14 -5.43552e-13 -72.1743 44.4795 -5.08151 9.35015 -3.75562 -16.5883 0.159838 -11.322 1.61245 1.27375e-11 -1.5262e-10 3.66761e-10 1.68342e-11 -2.69469e-10 6.3831e-10 1.27208e-11 -1.52625e-10 3.66769e-10 -7.73091 5.47488 -0.417314 1.27373e-11 -1.5262e-10 3.66761e-10 -2.90554 0.965183 -0.102902 1.27289e-11 -1.52619e-10 3.66764e-10 -10.2786 0.731801 -0.0259123 1.27421e-11 -1.52617e-10 3.66756e-10 -2.22167 -0.733487 0.20892 -2.03217e-16 0.0 -3.88251e-19 -3.57892 -7.7502 5.45392 -0.0118073 8.42379 -0.0111249 -16.3714 -23.0655 -37.3041 2.03217e-16 0.0 3.88251e-19 6.93811 3.40448 -1.13207 0.0040176 -0.993955 -0.00701821 1.35184 -15.2794 3.05371
48.6758 85.6602 -172.452 -1.318 25.8948 2.7021 2.04446 -6.66237 2.44615 -0.200171 -1.30776 0.820288 0.661252 15.66 -5.05758 4.3469 -24.0263 -8.99656 -0.0 0.0 0.0 -0.0 0.0 0.0 -1.72727e-14 -6.62429e-14 -5.55995e-13 82.0575 27.8319 -7.55685 -11.7857 -5.29963 21.1959 -0.00772665 2.51015 0.353006 1.5547e-09 2.38974e-09 -1.91782e-09 2.68423e-09 4.14706e-09 -3.32494e-09 1.55472e-09 2.38974e-09 -1.91784e-09 7.73091 5.47488 0.417314 1.55471e-09 2.38973e-09 -1.91783e-09 2.90554 0.965183 0.102902 1.55471e-09 2.38973e-09 -1.91783e-09 10.2786 0.731801 0.0259123 1.55469e-09 2.38974e-09 -1.91782e-09 2.22167 -0.733487 -0.20892 -1.73403e-14 -6.62475e-14 -5.5616e-13 -72.148 44.4978 -5.11711 9.35997 -3.76133 -16.6065 0.161534 -11.3808 1.62106 8.89048e-10 -1.26917e-10 -1.57589e-10 1.53422e-09 -2.26467e-10 -2.61113e-10 8.8904e-10 -1.2692e-10 -1.57589e-10 -7.73091 5.47488 -0.417314 8.89048e-10 -1.26916e-10 -1.57591e-10 -2.90554 0.965183 -0.102902 8.89037e-10 -1.26916e-10 -1.57588e-10 -10.2786 0.731801 -0.0259123 8.89051e-10 -1.26914e-10 -1.57597e-10 -2.22167 -0.733487 0.20892 -2.03217e-16 0.0 -3.88251e-19 -3.60442 -7.73532 5.45256 -0.011835 8.428 -0.0113092 -16.4051 -23.1293 -37.2961 2.03217e-16 0.0 3.88251e-19 6.92703 3.40386 -1.11307 0.0044312 -0.987642 -0.00610381 1.32479 -15.2627 2.97618
48.6809 85.6631 -172.453 -1.2786 25.909 2.7078 1.99756 -6.65205 2.40409 -0.157328 -1.28543 0.809696 0.685205 15.678 -5.07446 4.226 -24.1051 -9.05399 -0.0 0.0 0.0 -0.0 0.0 0.0 -3.85569e-14 -6.75848e-14 -5.1197e-13 82.0071 27.9541 -7.5096 -11.7802 -5.29559 21.1851 -0.00748113 2.46882 0.347187 1.39496e-09 2.50376e-09 -1.70816e-09 2.40836e-09 4.34486e-09 -2.96265e-09 1.39498e-09 2.50375e-09 -1.70817e-09 7.73091 5.47488 0.417314 1.39496e-09 2.50375e-09 -1.70817e-09 2.90554 0.965183 0.102902 1.39497e-09 2.50375e-09 -1.70816e-09 10.2786 0.731801 0.0259123 1.39495e-09 2.50375e-09 -1.70815e-09 2.22167 -0.733487 -0.20892 -3.86238e-14 -6.75891e-14 -5.12119e-13 -72.1268 44.487 -5.16969 9.36233 -3.76272 -16.6109 0.162711 -11.4213 1.62699 1.35734e-09 -1.48064e-10 -5.56155e-10 2.34638e-09 -2.62975e-10 -9.4676e-10 1.35734e-09 -1.48066e-10 -5.56158e-10 -7.73091 5.47488 -0.417314 1.35735e-09 -1.48063e-10 -5.56158e-10 -2.90554 0.965183 -0.102902 1.35733e-09 -1.48062e-10 -5.56155e-10 -10.2786 0.731801 -0.0259123 1.35735e-09 -1.48061e-10 -5.56165e-10 -2.22167 -0.733487 0.20892 -2.03217e-16 0.0 -3.88251e-19 -3.63164 -7.71624 5.45528 -0.0118652 8.42907 -0.0116901 -16.4328 -23.1753 -37.3003 2.03217e-16 0.0 3.88251e-19 6.91261 3.40036 -1.08392 0.00477988 -0.971741 -0.00559089 1.29635 -15.2379 2.89585
48.6754 85.6686 -172.445 -1.3066 25.9168 2.6736 1.93738 -6.64193 2.36806 -0.0889386 -1.2428 0.801316 0.731204 15.6893 -5.11252 4.03872 -24.1759 -9.16817 -0.0 0.0 0.0 -0.0 0.0 0.0 -1.9397e-14 -7.0334e-14 -3.47299e-13 81.9315 28.0445 -7.44814 -11.7807 -5.29598 21.1862 -0.00740647 2.45595 0.345375 6.27229e-10 2.23707e-09 -1.27598e-09 1.08166e-09 3.87941e-09 -2.21217e-09 6.27241e-10 2.23706e-09 -1.27599e-09 7.73091 5.47488 0.417314 6.2723e-10 2.23706e-09 -1.27599e-09 2.90554 0.965183 0.102902 6.27239e-10 2.23706e-09 -1.27598e-09 10.2786 0.731801 0.0259123 6.27219e-10 2.23706e-09 -1.27597e-09 2.22167 -0.733487 -0.20892 -1.94492e-14 -7.03376e-14 -3.4742e-13 -72.1133 44.4382 -5.2473 9.35477 -3.75836 -16.5969 0.163402 -11.4448 1.63042 1.15378e-09 -2.91415e-10 -7.90145e-10 1.99767e-09 -5.08222e-10 -1.35404e-09 1.15379e-09 -2.91416e-10 -7.90146e-10 -7.73091 5.47488 -0.417314 1.15379e-09 -2.91415e-10 -7.90149e-10 -2.90554 0.965183 -0.102902 1.15377e-09 -2.91414e-10 -7.90146e-10 -10.2786 0.731801 -0.0259123 1.15379e-09 -2.91413e-10 -7.90155e-10 -2.22167 -0.733487 0.20892 -2.03217e-16 0.0 -3.88251e-19 -3.66231 -7.68662 5.46911 -0.0119029 8.42385 -0.0126276 -16.4556 -23.1999 -37.3247 2.03217e-16 0.0 3.88251e-19 6.8919 3.40111 -1.04057 0.00504247 -0.95209 -0.0055162 1.26678 -15.1939 2.81545
48.6737 85.6716 -172.444 -1.3039 25.9315 2.6665 1.86299 -6.63356 2.33229 0.00216556 -1.18289 0.793515 0.791815 15.6972 -5.16571 3.79843 -24.2471 -9.32393 -0.0 0.0 0.0 -0.0 0.0 0.0 2.40826e-14 -7.27291e-14 -9.33853e-14 81.8329 28.1242 -7.37254 -11.7848 -5.29883 21.1941 -0.00741681 2.45769 0.34562 -5.6583e-10 1.71024e-09 -6.61769e-10 -9.80114e-10 2.96085e-09 -1.14463e-09 -5.6582e-10 1.71023e-09 -6.61783e-10 7.73091 5.47488 0.417314 -5.6583e-10 1.71023e-09 -6.61775e-10 2.90554 0.965183 0.102902 -5.6582e-10 1.71023e-09 -6.6177e-10 10.2786 0.731801 0.0259123 -5.65837e-10 1.71023e-09 -6.61761e-10 2.22167 -0.733487 -0.20892 2.40529e-14 -7.27318e-14 -9.34692e-14 -72.1077 44.3597 -5.34549 9.33987 -3.74974 -16.5692 0.163718 -11.4554 1.63198 5.48468e-10 -5.10444e-10 -9.55719e-10 9.55132e-10 -8.82523e-10 -1.64686e-09 5.48468e-10 -5.10442e-10 -9.55712e-10 -7.73091 5.47488 -0.417314 5.48469e-10 -5.10443e-10 -9.55722e-10 -2.90554 0.965183 -0.102902 5.48457e-10 -5.10442e-10 -9.5572e-10 -10.2786 0.731801 -0.0259123 5.48472e-10 -5.10442e-10 -9.55728e-10 -2.22167 -0.733487 0.20892 -2.03217e-16 0.0 -3.88251e-19 -3.69972 -7.64962 5.49064 -0.0119524 8.41447 -0.0140121 -16.4752 -23.2106 -37.3626 2.03217e-16 0.0 3.88251e-19 6.86319 3.40419 -0.984501 0.00523849 -0.929109 -0.00565913 1.23588 -15.1366 2.73311
